<svg xmlns="http://www.w3.org/2000/svg" xmlns:xlink="http://www.w3.org/1999/xlink" viewBox="0 0 270.85 279.02"><defs><style>.cls-1,.cls-5,.cls-8{fill:none;}.cls-2{fill:#ebf9f9;}.cls-3,.cls-9{fill:#00829a;}.cls-4{clip-path:url(#clip-path);}.cls-5{stroke:#00a7a4;stroke-miterlimit:10;stroke-width:8px;}.cls-5,.cls-9{stroke-linecap:round;}.cls-6{fill:#40bdbb;}.cls-7{fill:#fff;}.cls-8{stroke:#00829a;stroke-width:8.88px;}.cls-8,.cls-9{stroke-linejoin:round;}.cls-9{stroke:#0a3942;stroke-width:11.81px;}.cls-10{fill:#00a7a4;}.cls-11{fill:#00db6a;}.cls-12{clip-path:url(#clip-path-2);}</style><clipPath id="clip-path"><path class="cls-1" d="M54.4,77.35l30.35,92.33,70.24-23L141.21,66.64s32-36.19-7.18-20.25Z"/></clipPath><clipPath id="clip-path-2"><rect class="cls-1" x="-321.8" y="56.15" width="117.65" height="90.07" transform="translate(-54.54 -88.42) rotate(-21.25)"/></clipPath></defs><title>welcome-series-2</title><g id="Layer_20" data-name="Layer 20"><circle class="cls-2" cx="135" cy="135" r="135"/><path class="cls-3" d="M54.4,77.35l30.35,92.33,70.24-23L141.21,66.64s32-36.19-7.18-20.25Z"/><g class="cls-4"><line class="cls-5" x1="340.4" y1="-85.27" x2="269.85" y2="317.23"/><line class="cls-5" x1="317.84" y1="-85.27" x2="247.29" y2="317.23"/><line class="cls-5" x1="295.28" y1="-85.27" x2="224.73" y2="317.23"/><line class="cls-5" x1="272.72" y1="-85.27" x2="202.17" y2="317.23"/><line class="cls-5" x1="250.16" y1="-85.27" x2="179.61" y2="317.23"/><line class="cls-5" x1="227.6" y1="-85.27" x2="157.05" y2="317.23"/><line class="cls-5" x1="205.04" y1="-85.27" x2="134.49" y2="317.23"/><line class="cls-5" x1="182.48" y1="-85.27" x2="111.93" y2="317.23"/><line class="cls-5" x1="159.92" y1="-85.27" x2="89.37" y2="317.23"/><line class="cls-5" x1="137.36" y1="-85.27" x2="66.81" y2="317.23"/><line class="cls-5" x1="114.8" y1="-85.27" x2="44.25" y2="317.23"/><line class="cls-5" x1="92.24" y1="-85.27" x2="21.69" y2="317.23"/><line class="cls-5" x1="69.68" y1="-85.27" x2="-0.87" y2="317.23"/></g><path class="cls-6" d="M142.25,75.73,155,154.22s11.34,12.69,26.24,4.08,81.26-70,81.26-70,9.17-20.71-8-19.65S142.25,75.73,142.25,75.73Z"/><path class="cls-7" d="M151.94,45.73l11.85,28.58s-22.69,1.32-22.58-7.67S151.94,45.73,151.94,45.73Z"/><path class="cls-8" d="M54.4,77.35l92.25-35.87a5.29,5.29,0,0,1,6.13,8.13L144.61,60.4A9.13,9.13,0,0,0,152.45,75L254.5,68.7a11.19,11.19,0,0,1,8,19.65l-81.26,70A15.88,15.88,0,0,1,155,146.72h0l-70.24,23"/><line class="cls-8" x1="142.21" y1="66.64" x2="154.99" y2="146.72"/><line class="cls-9" x1="127.24" y1="273.12" x2="34.65" y2="34.73"/><line class="cls-8" x1="152.94" y1="42.33" x2="163.79" y2="75.99"/><circle class="cls-10" cx="34.65" cy="34.73" r="18.5"/><path class="cls-11" d="M174.09,201.92l6.32.28a1,1,0,0,0,1-1.06l-1.33-13.34a2.24,2.24,0,0,0-4.43-.19l-2.46,13.18A1,1,0,0,0,174.09,201.92Z"/><path class="cls-11" d="M152.63,196.2l5.5,3.12a1,1,0,0,0,1.37-.49l4.89-12.48a2.24,2.24,0,0,0-3.86-2.18l-8.19,10.6A1,1,0,0,0,152.63,196.2Z"/><path class="cls-11" d="M196.63,201.22l5.75-2.63a1,1,0,0,0,.41-1.4l-7.26-11.27a2.24,2.24,0,0,0-4,1.85l3.81,12.85A1,1,0,0,0,196.63,201.22Z"/></g><g id="Layer_19" data-name="Layer 19"><g class="cls-12"><line class="cls-5" x1="39.94" y1="-77.62" x2="-30.61" y2="324.87"/><line class="cls-5" x1="17.38" y1="-77.62" x2="-53.17" y2="324.87"/></g></g></svg>