<?xml version="1.0" encoding="UTF-8"?>
<svg id="Layer_1" data-name="Layer 1" xmlns="http://www.w3.org/2000/svg" viewBox="0 0 800 383.58">
  <defs>
    <style>
      .cls-1 {
        fill: #fff;
      }

      .cls-2 {
        fill: #03ffa3;
      }
    </style>
  </defs>
  <path class="cls-2" d="M532.58,330.37h-45.83v53.21h45.83v-7.52h7.54v-15.33h-7.54v-7.52h7.54v-15.33h-7.54v-7.52ZM524.74,370.35h-22.46l-.45-.45v-7.06h22.91v7.52ZM524.74,351.41h-22.91v-7.37l.45-.45h22.46v7.82Z"/>
  <polygon class="cls-2" points="624.23 280.72 624.23 265.39 578.4 265.39 578.4 272.91 570.87 272.91 570.87 297.56 608.86 297.56 608.86 303.27 570.87 303.27 570.87 318.6 616.69 318.6 616.69 311.09 624.23 311.09 624.23 286.14 585.94 286.14 585.94 280.72 624.23 280.72"/>
  <path class="cls-2" d="M532.58,265.39h-45.83v53.21h15.07v-15.03h22.91v15.03h15.38v-15.33h-7.54v-7.52h7.54v-22.85h-7.54v-7.52ZM524.74,288.24h-22.91v-7.52h22.91v7.52Z"/>
  <path class="cls-2" d="M677.9,265.39h-38.29v7.52h-7.54v45.7h15.07v-15.03h22.91v15.03h15.38v-45.7h-7.54v-7.52ZM670.06,288.24h-22.91v-7.52h22.91v7.52Z"/>
  <path class="cls-2" d="M792.46,272.91v-7.52h-38.29v7.52h-7.54v45.7h15.07v-15.03h22.91v15.03h15.38v-45.7h-7.54ZM784.62,288.24h-22.91v-7.52h22.91v7.52Z"/>
  <path class="cls-2" d="M593.78,330.37h-38.29v7.52h-7.54v38.18h7.54v7.52h38.29v-7.52h7.54v-38.18h-7.54v-7.52ZM585.94,368.25h-22.91v-22.55h22.91v22.55Z"/>
  <rect class="cls-2" x="547.95" y="265.39" width="15.38" height="53.21"/>
  <polygon class="cls-2" points="609.16 345.7 628.15 345.7 628.15 383.58 643.53 383.58 643.53 345.7 662.52 345.7 662.52 330.37 609.16 330.37 609.16 345.7"/>
  <polygon class="cls-2" points="708.35 303.27 708.35 265.39 693.27 265.39 693.27 311.09 700.81 311.09 700.81 318.6 739.1 318.6 739.1 303.72 738.65 303.27 708.35 303.27"/>
  <polygon class="cls-1" points="486.75 247.5 595.7 247.5 595.7 229.6 614.05 229.6 614.05 91.32 577.34 91.32 577.34 211.28 486.75 211.28 486.75 247.5"/>
  <polygon class="cls-1" points="261 181.93 351.75 181.93 351.92 181.93 433.71 181.93 433.71 164.03 452.07 164.03 452.07 181.93 534.03 181.93 534.03 164.03 551.96 164.03 551.96 91.32 515.67 91.32 515.67 145.7 461.03 145.7 461.03 91.32 424.75 91.32 424.75 145.06 424.11 145.7 370.11 145.7 370.11 91.32 333.4 91.32 333.4 145.7 279.35 145.7 279.35 0 242.64 0 242.64 164.03 261 164.03 261 181.93"/>
  <path class="cls-1" d="M182.17,145.7h-54.53V54.5H18.36v17.9H0v54.98h18.36v17.9h72.57v36.65h109.6v-17.9h18.36V0h-36.71v145.7ZM90.93,109.05h-54.64v-17.69l.64-.64h54v18.33Z"/>
  <path class="cls-1" d="M424.66,265.43h-54.55v-54.56h-109.28v17.9h-18.36v54.98h18.36v17.9h72.57v18.48h-72.57v36.23h90.92v-17.9h18.36v-36.8h72.9v-17.9h18.36v-72.71h-36.71v54.38ZM333.4,247.31v18.11h-54.64v-17.69l.64-.64h54v.22Z"/>
  <rect class="cls-2" x="61.76" y="256.48" width="36.71" height="36.33"/>
  <rect class="cls-2" x="119.83" y="256.48" width="36.71" height="36.33"/>
  <rect class="cls-1" x="424.66" y="320.35" width="36.71" height="36.33"/>
  <path class="cls-2" d="M200.43,211.04h-74.64c0-9.09-7.37-16.47-16.47-16.47h-.35c-9.09,0-16.47,7.37-16.47,16.47H17.87v18.29s-17.87,0-17.87,0v90.62h17.88v18.29h182.54v-18.29h17.88v-90.62h-17.88v-18.29ZM182.11,302.08H36.19v-54.46s145.92,0,145.92,0v54.46Z"/>
  <rect class="cls-1" x="32.87" width="36.71" height="36.33"/>
  <rect class="cls-1" x="90.93" width="36.71" height="36.33"/>
</svg>