<!DOCTYPE svg PUBLIC "-//W3C//DTD SVG 1.1//EN" "http://www.w3.org/Graphics/SVG/1.1/DTD/svg11.dtd">
<!-- Uploaded to: SVG Repo, www.svgrepo.com, Transformed by: SVG Repo Mixer Tools -->
<svg width="256px" height="256px" viewBox="-2.4 -2.4 28.80 28.80" fill="none" xmlns="http://www.w3.org/2000/svg">
<g id="SVGRepo_bgCarrier" stroke-width="0">
<path transform="translate(-2.4, -2.4), scale(1.7999999999999998)" fill="#FCF6F5" d="M9.166.33a2.25 2.25 0 00-2.332 0l-5.25 3.182A2.25 2.25 0 00.5 5.436v5.128a2.25 2.25 0 001.084 1.924l5.25 3.182a2.25 2.25 0 002.332 0l5.25-3.182a2.25 2.25 0 001.084-1.924V5.436a2.25 2.25 0 00-1.084-1.924L9.166.33z" strokewidth="0"/>
</g>
<g id="SVGRepo_tracerCarrier" stroke-linecap="round" stroke-linejoin="round" stroke="#CCCCCC" stroke-width="0.4800000000000001"> <path d="M18.5 18C18.5 19.1046 17.6046 20 16.5 20C15.3954 20 14.5 19.1046 14.5 18M18.5 18C18.5 16.8954 17.6046 16 16.5 16C15.3954 16 14.5 16.8954 14.5 18M18.5 18H21.5M14.5 18H13.5M8.5 18C8.5 19.1046 7.60457 20 6.5 20C5.39543 20 4.5 19.1046 4.5 18M8.5 18C8.5 16.8954 7.60457 16 6.5 16C5.39543 16 4.5 16.8954 4.5 18M8.5 18H13.5M4.5 18C3.39543 18 2.5 17.1046 2.5 16V7.2C2.5 6.0799 2.5 5.51984 2.71799 5.09202C2.90973 4.71569 3.21569 4.40973 3.59202 4.21799C4.01984 4 4.5799 4 5.7 4H10.3C11.4201 4 11.9802 4 12.408 4.21799C12.7843 4.40973 13.0903 4.71569 13.282 5.09202C13.5 5.51984 13.5 6.0799 13.5 7.2V18M13.5 18V8H17.5L20.5 12M20.5 12V18M20.5 12H13.5" stroke="#00203F" stroke-width="2" stroke-linecap="round" stroke-linejoin="round"/> </g>
<g id="SVGRepo_iconCarrier"> <path d="M18.5 18C18.5 19.1046 17.6046 20 16.5 20C15.3954 20 14.5 19.1046 14.5 18M18.5 18C18.5 16.8954 17.6046 16 16.5 16C15.3954 16 14.5 16.8954 14.5 18M18.5 18H21.5M14.5 18H13.5M8.5 18C8.5 19.1046 7.60457 20 6.5 20C5.39543 20 4.5 19.1046 4.5 18M8.5 18C8.5 16.8954 7.60457 16 6.5 16C5.39543 16 4.5 16.8954 4.5 18M8.5 18H13.5M4.5 18C3.39543 18 2.5 17.1046 2.5 16V7.2C2.5 6.0799 2.5 5.51984 2.71799 5.09202C2.90973 4.71569 3.21569 4.40973 3.59202 4.21799C4.01984 4 4.5799 4 5.7 4H10.3C11.4201 4 11.9802 4 12.408 4.21799C12.7843 4.40973 13.0903 4.71569 13.282 5.09202C13.5 5.51984 13.5 6.0799 13.5 7.2V18M13.5 18V8H17.5L20.5 12M20.5 12V18M20.5 12H13.5" stroke="#00203F" stroke-width="2" stroke-linecap="round" stroke-linejoin="round"/> </g>
</svg>